<svg width="124" height="122" viewBox="0 0 124 122" fill="none" xmlns="http://www.w3.org/2000/svg">
<g id="Capa_1">
<g id="Group">
<path id="Vector" d="M92.5007 31.7738C114.498 53.2698 128.83 83.4402 106.832 104.936C84.8344 126.432 52.361 113.976 30.3634 92.4797C8.36576 70.9836 -3.08138 6.87519 1.70072 2.20214C6.48281 -2.47091 70.5031 10.2924 92.5007 31.7738Z" stroke="#1A4756" stroke-miterlimit="10"/>
<path id="Vector_2" d="M60.6406 91.1216H84.902C89.8983 91.1216 94.6963 93.0766 98.2697 96.5686V96.5686L106.833 104.936C108.252 106.645 123.002 121 123.002 121" stroke="#1A4756" stroke-miterlimit="10"/>
<path id="Vector_3" d="M57.9789 94.232C59.8442 94.232 61.3563 92.7544 61.3563 90.9317C61.3563 89.109 59.8442 87.6313 57.9789 87.6313C56.1137 87.6313 54.6016 89.109 54.6016 90.9317C54.6016 92.7544 56.1137 94.232 57.9789 94.232Z" stroke="#1A4756" stroke-miterlimit="10"/>
<path id="Vector_4" d="M44.7094 67.7711C46.5746 67.7711 48.0867 66.2935 48.0867 64.4708C48.0867 62.648 46.5746 61.1704 44.7094 61.1704C42.8441 61.1704 41.332 62.648 41.332 64.4708C41.332 66.2935 42.8441 67.7711 44.7094 67.7711Z" stroke="#1A4756" stroke-miterlimit="10"/>
<path id="Vector_5" d="M19.2133 45.9684C21.0786 45.9684 22.5906 44.4907 22.5906 42.668C22.5906 40.8453 21.0786 39.3677 19.2133 39.3677C17.348 39.3677 15.8359 40.8453 15.8359 42.668C15.8359 44.4907 17.348 45.9684 19.2133 45.9684Z" stroke="#1A4756" stroke-miterlimit="10"/>
<path id="Vector_6" d="M38.3422 24.1803C40.2075 24.1803 41.7196 22.7027 41.7196 20.8799C41.7196 19.0572 40.2075 17.5796 38.3422 17.5796C36.4769 17.5796 34.9648 19.0572 34.9648 20.8799C34.9648 22.7027 36.4769 24.1803 38.3422 24.1803Z" stroke="#1A4756" stroke-miterlimit="10"/>
<path id="Vector_7" d="M16.0336 21.0694C17.8989 21.0694 19.411 19.5918 19.411 17.7691C19.411 15.9464 17.8989 14.4688 16.0336 14.4688C14.1683 14.4688 12.6562 15.9464 12.6562 17.7691C12.6562 19.5918 14.1683 21.0694 16.0336 21.0694Z" stroke="#1A4756" stroke-miterlimit="10"/>
<path id="Vector_8" d="M94.1 59.9874C95.9653 59.9874 97.4774 58.5098 97.4774 56.6871C97.4774 54.8643 95.9653 53.3867 94.1 53.3867C92.2347 53.3867 90.7227 54.8643 90.7227 56.6871C90.7227 58.5098 92.2347 59.9874 94.1 59.9874Z" stroke="#1A4756" stroke-miterlimit="10"/>
<path id="Vector_9" d="M79.7524 42.8575C81.6176 42.8575 83.1297 41.3799 83.1297 39.5572C83.1297 37.7344 81.6176 36.2568 79.7524 36.2568C77.8871 36.2568 76.375 37.7344 76.375 39.5572C76.375 41.3799 77.8871 42.8575 79.7524 42.8575Z" stroke="#1A4756" stroke-miterlimit="10"/>
<path id="Vector_10" d="M76.6757 91.1217L68.789 83.4243C66.1014 80.8013 64.5859 77.2047 64.5859 73.4492V73.4492C64.5859 69.6967 66.099 66.1027 68.7828 63.48L71.9608 60.3745C76.677 55.7658 79.3357 49.4503 79.3357 42.8563V42.668" stroke="#1A4756" stroke-miterlimit="10"/>
<path id="Vector_11" d="M92.6949 91.1214L90.9285 89.3953C85.5447 84.1343 85.5447 75.4735 90.9285 70.2124V70.2124C93.5107 67.6891 94.9664 64.2313 94.9664 60.621V59.7974" stroke="#1A4756" stroke-miterlimit="10"/>
<path id="Vector_12" d="M72.7747 59.5787V59.5787C68.4827 55.3846 62.72 53.0364 56.719 53.0364H47.8928H42.1323C34.2427 53.0364 26.6662 49.9492 21.0234 44.4351V44.4351" stroke="#1A4756" stroke-miterlimit="10"/>
<path id="Vector_13" d="M64.5848 73.0867H63.864C57.7157 73.0867 51.8114 70.6809 47.4141 66.3838V66.3838" stroke="#1A4756" stroke-miterlimit="10"/>
<path id="Vector_14" d="M56.4096 53.036V53.036C56.4096 43.9495 52.7459 35.2468 46.2471 28.8962L40.1953 22.9824" stroke="#1A4756" stroke-miterlimit="10"/>
<path id="Vector_15" d="M45.921 28.9406H42.2363C33.6099 28.9406 25.326 25.5652 19.1562 19.5361V19.5361" stroke="#1A4756" stroke-miterlimit="10"/>
</g>
</g>
</svg>
