<svg width="22" height="23" viewBox="0 0 22 23" fill="none" xmlns="http://www.w3.org/2000/svg">
<g id="Phosphor Icons / InstagramLogo">
<path id="Vector" d="M10.8459 15.0769C12.7045 15.0769 14.2113 13.5271 14.2113 11.6153C14.2113 9.70359 12.7045 8.15381 10.8459 8.15381C8.98721 8.15381 7.48047 9.70359 7.48047 11.6153C7.48047 13.5271 8.98721 15.0769 10.8459 15.0769Z" stroke="white" stroke-miterlimit="10"/>
<path id="Vector_2" d="M14.5478 3.65381H7.14395C4.91356 3.65381 3.10547 5.51355 3.10547 7.80765V15.423C3.10547 17.7171 4.91356 19.5769 7.14395 19.5769H14.5478C16.7782 19.5769 18.5863 17.7171 18.5863 15.423V7.80765C18.5863 5.51355 16.7782 3.65381 14.5478 3.65381Z" stroke="white" stroke-linecap="round" stroke-linejoin="round"/>
<path id="Vector_3" d="M15.2206 8.15383C15.7782 8.15383 16.2302 7.68889 16.2302 7.11537C16.2302 6.54184 15.7782 6.0769 15.2206 6.0769C14.663 6.0769 14.2109 6.54184 14.2109 7.11537C14.2109 7.68889 14.663 8.15383 15.2206 8.15383Z" fill="white"/>
</g>
</svg>
