<svg width="22" height="23" viewBox="0 0 22 23" fill="none" xmlns="http://www.w3.org/2000/svg">
<path d="M10.7684 8.15375C10.7684 6.2499 12.3249 4.66625 14.1758 4.69221C14.824 4.69991 15.4563 4.9 15.9966 5.26845C16.5369 5.63689 16.9623 6.158 17.2215 6.76913H20.1915L17.4739 9.56432C17.2985 12.3721 16.0901 15.0058 14.0944 16.93C12.0986 18.8542 9.46533 19.9244 6.72989 19.923C4.03757 19.923 3.36449 18.8845 3.36449 18.8845C3.36449 18.8845 6.05681 17.8461 7.40297 15.7691C7.40297 15.7691 2.01833 12.9999 3.36449 5.38452C3.36449 5.38452 6.72989 8.84606 10.7684 9.53836V8.15375Z" stroke="white" strokeLinecap="round" strokeLinejoin="round"/>
</svg>
