<svg width="23" height="23" viewBox="0 0 23 23" fill="none" xmlns="http://www.w3.org/2000/svg">
<path d="M4.3581 15.8555C3.35596 14.1164 3.00542 12.0609 3.3723 10.0749C3.73918 8.08881 4.79824 6.30878 6.35066 5.06895C7.90308 3.82912 9.8421 3.21477 11.8037 3.34121C13.7653 3.46766 15.6146 4.32621 17.0043 5.75569C18.3941 7.18518 19.2288 9.08728 19.3518 11.1049C19.4747 13.1226 18.8774 15.117 17.672 16.7137C16.4666 18.3105 14.736 19.3998 12.8051 19.7772C10.8742 20.1545 8.87581 19.794 7.18504 18.7632V18.7632L4.39176 19.5767C4.27732 19.6111 4.15598 19.6132 4.04046 19.5828C3.92494 19.5524 3.8195 19.4906 3.73519 19.4039C3.65087 19.3172 3.59079 19.2087 3.56124 19.0899C3.53169 18.9711 3.53376 18.8463 3.56724 18.7286L4.3581 15.8555Z" stroke="white" strokeLinecap="round" strokeLinejoin="round"/>
<path d="M13.3369 16.4614C12.4513 16.4637 11.5739 16.286 10.7553 15.9384C9.93664 15.5909 9.19283 15.0804 8.5666 14.4362C7.94036 13.7921 7.44404 13.0271 7.10615 12.185C6.76826 11.343 6.59546 10.4406 6.59768 9.52968C6.5999 8.88854 6.84908 8.27444 7.29064 7.82189C7.73219 7.36935 8.33012 7.11525 8.95346 7.11525V7.11525C9.0563 7.11441 9.15746 7.14209 9.2463 7.1954C9.33513 7.2487 9.40836 7.32564 9.45827 7.41814L10.4426 9.18352C10.5012 9.29084 10.5312 9.41212 10.5297 9.53516C10.5283 9.65821 10.4953 9.77869 10.4342 9.88448L9.64336 11.2431C10.0485 12.17 10.7699 12.9121 11.671 13.3287L12.9919 12.5153C13.0948 12.4524 13.2119 12.4185 13.3316 12.417C13.4512 12.4155 13.5691 12.4464 13.6734 12.5066L15.3898 13.5191C15.4797 13.5704 15.5545 13.6457 15.6063 13.7371C15.6582 13.8285 15.6851 13.9325 15.6843 14.0383C15.6821 14.6788 15.4343 15.2925 14.9948 15.7462C14.5553 16.1998 13.9595 16.4569 13.3369 16.4614V16.4614Z" stroke="white" strokeLinecap="round" strokeLinejoin="round"/>
</svg>
